<svg xmlns="http://www.w3.org/2000/svg" width="132.35" height="52.085" viewBox="0 0 132.35 52.085">
  <g id="logo" transform="translate(51.288 -42.655)">
    <g id="그룹_1" data-name="그룹 1" transform="translate(-6.029 54.273)">
      <path id="패스_1" data-name="패스 1" d="M-37.112,46.294h24.395v4.882h-8.93V79.714h-6.535V51.176h-8.93Z" transform="translate(37.112 -46.294)" fill="#fff"/>
      <path id="패스_2" data-name="패스 2" d="M-23.957,46.294H-1.082a5.657,5.657,0,0,1,2.509.715A14.654,14.654,0,0,1,4.1,48.759a11.961,11.961,0,0,1,2.12,2.209,3.711,3.711,0,0,1,.849,2.091V79.714H.531V54.074a3.107,3.107,0,0,0-.69-2.094,2.359,2.359,0,0,0-1.887-.8H-7.432V79.714H-13.97V51.176h-8.1V79.714h-6.535V50.483a2.731,2.731,0,0,1,.137-1.012,1.3,1.3,0,0,1,.367-.508l2.717-2.254a1.47,1.47,0,0,1,.69-.345A3.845,3.845,0,0,1-23.957,46.294Z" transform="translate(55.764 -46.294)" fill="#fff"/>
      <path id="패스_3" data-name="패스 3" d="M-6.875,74.833H3.667v4.882H-7.705A5.8,5.8,0,0,1-10.237,79a14.87,14.87,0,0,1-2.714-1.75,11.761,11.761,0,0,1-2.165-2.232A3.755,3.755,0,0,1-15.99,72.9V53.244a5.957,5.957,0,0,1,.6-2.621,7.174,7.174,0,0,1,1.66-2.212,8.358,8.358,0,0,1,2.439-1.542A7.7,7.7,0,0,1-8.3,46.294H3.478v4.882H-6.645a3.52,3.52,0,0,0-1.932.552,2.152,2.152,0,0,0-.875,1.979V71.934a2.912,2.912,0,0,0,.69,2.05A2.709,2.709,0,0,0-6.875,74.833Z" transform="translate(83.424 -46.294)" fill="#fff"/>
    </g>
    <path id="패스_4" data-name="패스 4" d="M-34.667,86.76a2.442,2.442,0,0,1-1.711-.709L-50.55,72.131a2.449,2.449,0,0,1-.728-1.976l1.967-21.624a2.462,2.462,0,0,1,1.421-2.015,2.486,2.486,0,0,1,2.455.227l13.642,9.693a2.453,2.453,0,0,1,1.038,2.139L-32.2,84.426a2.441,2.441,0,0,1-1.564,2.161A2.51,2.51,0,0,1-34.667,86.76Zm-13.4-16.665,12.774,12.547,1.325-23.836-12.279-8.722Zm-.249-.246,0,.006Zm14.673-10.81.006,0Z" transform="translate(0 7.98)" fill="#fff"/>
    <path id="패스_5" data-name="패스 5" d="M-44.557,80.169q-1.025,0-2.082,0a4.606,4.606,0,0,1-3.378-1.494,4.592,4.592,0,0,1-1.175-3.5l1.673-18.335a4.6,4.6,0,0,1,2.976-3.879l27.086-10.015a4.547,4.547,0,0,1,4.115.466,4.531,4.531,0,0,1,2.062,3.569l.01.182-4.1,24.053c-.051,1.341-2.209,5.606-5.97,7.483C-25.714,79.891-33.5,80.169-44.557,80.169Zm26.7-34.317a1.393,1.393,0,0,0-.492.089L-45.435,55.956a1.392,1.392,0,0,0-.9,1.172l-1.673,18.342a1.363,1.363,0,0,0,.354,1.054c.683.744,1.849.453,3.317.453,6.091,0,17.515-.1,19.574-1.13a9.52,9.52,0,0,0,4.221-4.862l-.01-.176.013-.179,4.058-23.616a1.35,1.35,0,0,0-.607-.929A1.393,1.393,0,0,0-17.857,45.851Z" transform="translate(0.172 0)" fill="#278998"/>
  </g>
</svg>
